<svg width="10" height="10" viewBox="0 0 10 10" fill="none" xmlns="http://www.w3.org/2000/svg">
<path d="M8.00001 0.125H2.00001C0.958331 0.125 0.125 0.958331 0.125 2V8C0.125 9.04167 0.958331 9.875 2.00001 9.875H8.00001C9.04168 9.875 9.87501 9.04167 9.87501 8V2C9.87501 0.958331 9.04167 0.125 8.00001 0.125ZM8.54168 1.25H8.75001V2.91666H7.08334V1.25H8.54168ZM3.62501 4.00001C3.91667 3.58333 4.45834 3.29166 5.00001 3.29166C5.54168 3.29166 6.08335 3.58333 6.37501 4.00001C6.58334 4.29167 6.70834 4.625 6.70834 5C6.70834 5.95833 5.91667 6.70833 5.00001 6.70833C4.08334 6.70833 3.29168 5.95834 3.29168 5C3.29167 4.625 3.41667 4.29167 3.62501 4.00001ZM8.91668 8C8.91668 8.50001 8.50001 8.91667 8.00001 8.91667H2.00001C1.50001 8.91667 1.08333 8.50001 1.08333 8V4.00001H2.54167C2.41666 4.29167 2.33334 4.66667 2.33334 5C2.33334 6.45833 3.54167 7.66667 5 7.66667C6.45834 7.66667 7.66667 6.45833 7.66667 5C7.66667 4.66667 7.58333 4.29166 7.45834 4.00001H8.91667L8.91668 8Z" fill="#422712"/>
</svg>
